<?xml version="1.0" encoding="UTF-8" standalone="no"?>
<!-- Created with Inkscape (http://www.inkscape.org/) -->

<svg
   width="48"
   height="48"
   viewBox="0 0 48 48"
   version="1.1"
   id="svg1"
   inkscape:version="1.3.2 (091e20e, 2023-11-25, custom)"
   sodipodi:docname="male_logo.svg"
   xmlns:inkscape="http://www.inkscape.org/namespaces/inkscape"
   xmlns:sodipodi="http://sodipodi.sourceforge.net/DTD/sodipodi-0.dtd"
   xmlns="http://www.w3.org/2000/svg"
   xmlns:svg="http://www.w3.org/2000/svg">
  <sodipodi:namedview
     id="namedview1"
     pagecolor="#ffffff"
     bordercolor="#000000"
     borderopacity="0.25"
     inkscape:showpageshadow="2"
     inkscape:pageopacity="0.0"
     inkscape:pagecheckerboard="0"
     inkscape:deskcolor="#d1d1d1"
     inkscape:document-units="px"
     inkscape:zoom="23.145833"
     inkscape:cx="23.611161"
     inkscape:cy="32.856886"
     inkscape:window-width="2560"
     inkscape:window-height="1346"
     inkscape:window-x="-11"
     inkscape:window-y="-11"
     inkscape:window-maximized="1"
     inkscape:current-layer="svg1" />
  <defs
     id="defs1" />
  <g
     inkscape:label="Warstwa 1"
     inkscape:groupmode="layer"
     id="layer1">
    <path
       d="m 36.022514,12.858218 c -0.567561,0 -1.105881,0.114434 -1.649951,0.210703 -2.089518,-4.6633199 -5.951229,-7.7790589 -10.333995,-7.7790589 -4.476244,0 -8.338429,3.152067 -10.397752,7.7572619 -0.527292,-0.089 -1.053629,-0.188906 -1.586196,-0.188906 -6.6060274,0 -11.98394416,6.788513 -11.98394416,15.136712 0,8.351831 5.37791676,15.136711 11.98394416,15.136711 h 23.967894 c 6.606028,0 11.983945,-6.78488 11.983945,-15.136711 0,-8.348199 -5.377917,-15.136712 -11.983945,-15.136712 z m 0,22.705067 H 12.05462 c -3.305649,0 -5.9919718,-3.396072 -5.9919718,-7.568355 0,-4.149881 2.9077852,-7.350387 5.9977258,-7.464821 0.01198,1.784921 0.257415,3.536541 0.748758,5.191892 l 5.611841,-2.653163 c -0.251664,-0.838574 -0.37438,-1.729217 -0.37438,-2.642264 0,-4.172283 2.686323,-7.568356 5.991975,-7.568356 1.937083,0 3.692492,1.212148 4.792616,3.100604 -2.891006,2.764569 -4.792616,7.105778 -4.792616,12.036108 h 5.991972 c 0,-4.172284 2.686321,-7.568356 5.991974,-7.568356 3.30565,0 5.991972,3.396072 5.991972,7.568356 0,4.172283 -2.686322,7.568355 -5.991972,7.568355 z"
       fill="#dcdcdc"
       data-fill-palette-color="accent"
       id="path4"
       style="stroke-width:0.538734" />
  </g>
</svg>
